<svg width="32" height="32" viewBox="0 0 32 32" fill="none" xmlns="http://www.w3.org/2000/svg">
	<path fill-rule="evenodd" clip-rule="evenodd"
		d="M6.6665 5.33398C4.45736 5.33398 2.6665 7.12485 2.6665 9.33398V22.6673C2.6665 24.8765 4.45736 26.6673 6.6665 26.6673H10.7016C11.5615 26.6673 12.4157 26.8059 13.2314 27.0778L15.6836 27.8952C15.8889 27.9637 16.1108 27.9637 16.3161 27.8952L18.7682 27.0778C19.584 26.8059 20.4382 26.6673 21.2981 26.6673H25.3332C27.5423 26.6673 29.3332 24.8765 29.3332 22.6673V9.33398C29.3332 7.12485 27.5423 5.33398 25.3332 5.33398H19.9998C18.5088 5.33398 17.1606 5.94587 16.1928 6.93223C16.0875 7.03958 15.9122 7.03958 15.8069 6.93223C14.839 5.94587 13.4909 5.33398 11.9998 5.33398H6.6665ZM17.3332 24.7453L17.925 24.548C19.0126 24.1855 20.1516 24.0007 21.2981 24.0007H25.3332C26.0695 24.0007 26.6665 23.4037 26.6665 22.6673V9.33398C26.6665 8.5976 26.0695 8.00065 25.3332 8.00065H19.9998C18.5271 8.00065 17.3332 9.19456 17.3332 10.6673V24.7453Z"
	/>
</svg>
	