<svg width="32" height="32" viewBox="0 0 32 32" fill="none" xmlns="http://www.w3.org/2000/svg">
	<path fill-rule="evenodd" clip-rule="evenodd"
		d="M3.99064 12.1417C3.14779 12.9002 2.6665 13.9809 2.6665 15.1148V25.3334C2.6665 27.5425 4.45736 29.3334 6.6665 29.3334H25.3332C27.5423 29.3334 29.3332 27.5425 29.3332 25.3334V15.1148C29.3332 13.9809 28.8519 12.9002 28.009 12.1417L18.6757 3.74167C17.1545 2.37257 14.8452 2.37257 13.324 3.74167L3.99064 12.1417ZM14.6665 17.3334C13.1937 17.3334 11.9998 18.5273 11.9998 20.0001V25.3334C11.9998 26.0698 12.5968 26.6667 13.3332 26.6667H18.6665C19.4029 26.6667 19.9998 26.0698 19.9998 25.3334V20.0001C19.9998 18.5273 18.8059 17.3334 17.3332 17.3334H14.6665Z"
	/>
</svg>
	