<svg width="32" height="32" viewBox="0 0 32 32" fill="none" xmlns="http://www.w3.org/2000/svg">
	<path class="stroke" fill-rule="evenodd" clip-rule="evenodd"
		d="M2.66675 6.66602C2.66675 4.45688 4.45761 2.66602 6.66675 2.66602H25.3334C27.5426 2.66602 29.3334 4.45688 29.3334 6.66602V25.3327C29.3334 27.5418 27.5426 29.3327 25.3334 29.3327H6.66675C4.45761 29.3327 2.66675 27.5418 2.66675 25.3327V6.66602ZM21.3334 5.33268H25.3334C26.0698 5.33268 26.6667 5.92964 26.6667 6.66602V10.666H21.3334V5.33268ZM18.6667 5.33268H13.3334V10.666H18.6667V5.33268ZM10.6667 5.33268H6.66675C5.93037 5.33268 5.33341 5.92964 5.33341 6.66602V10.666H10.6667V5.33268ZM5.33341 13.3327V18.666H10.6667V13.3327H5.33341ZM5.33341 21.3327V25.3327C5.33341 26.0691 5.93037 26.666 6.66675 26.666H10.6667V21.3327H5.33341ZM13.3334 26.666H18.6667V21.3327H13.3334V26.666ZM21.3334 26.666H25.3334C26.0698 26.666 26.6667 26.0691 26.6667 25.3327V21.3327H21.3334V26.666ZM26.6667 18.666V13.3327H21.3334V18.666H26.6667ZM18.6667 13.3327V18.666H13.3334V13.3327H18.6667Z"
	/>
	<path
		d="M5.33341 21.3327V25.3327C5.33341 26.0691 5.93037 26.666 6.66675 26.666H10.6667V21.3327H5.33341Z"
		fill="#525775" />
	<path d="M18.6667 18.666V13.3327H13.3334V18.666H18.6667Z" fill="#525775" />
	<path
		d="M21.3334 26.666H25.3334C26.0698 26.666 26.6667 26.0691 26.6667 25.3327V21.3327H21.3334V26.666Z"
		fill="#525775" />
	<path
		d="M25.3334 5.33268H21.3334V10.666H26.6667V6.66602C26.6667 5.92964 26.0698 5.33268 25.3334 5.33268Z"
		fill="#525775" />
	<path
		d="M10.6667 5.33268H6.66675C5.93037 5.33268 5.33341 5.92964 5.33341 6.66602V10.666H10.6667V5.33268Z"
		fill="#525775" />
	<path d="M13.3334 26.666H18.6667V21.3327H13.3334V26.666Z" fill="#7B82A7" />
	<path d="M26.6667 18.666V13.3327H21.3334V18.666H26.6667Z" fill="#7B82A7" />
	<path d="M18.6667 5.33268H13.3334V10.666H18.6667V5.33268Z" fill="#7B82A7" />
	<path d="M5.33341 13.3327V18.666H10.6667V13.3327H5.33341Z" fill="#7B82A7" />
</svg>
	