<svg width="32" height="32" viewBox="0 0 32 32" fill="none" xmlns="http://www.w3.org/2000/svg">
	<path fill-rule="evenodd" clip-rule="evenodd"
		d="M12.1253 4.70759C11.8824 5.43657 11.3277 6.00962 10.6564 6.38343C10.552 6.44158 10.4486 6.50137 10.3463 6.56278C9.68669 6.95875 8.91221 7.15317 8.15851 6.99893L6.55614 6.67103C5.43163 6.44092 4.28604 6.95619 3.71213 7.95023L2.88415 9.38432C2.31025 10.3784 2.43681 11.6281 3.19835 12.4869L4.28505 13.7124C4.79427 14.2866 5.01434 15.0525 5.00218 15.8199C5.00027 15.9403 5.00027 16.0609 5.00218 16.1814C5.01434 16.9488 4.79426 17.7146 4.28505 18.2888L3.19835 19.5143C2.43681 20.3731 2.31025 21.6229 2.88415 22.6169L3.71213 24.051C4.28604 25.045 5.43163 25.5603 6.55614 25.3302L8.1584 25.0023C8.91212 24.8481 9.6866 25.0425 10.3462 25.4385C10.4485 25.4999 10.5519 25.5597 10.6564 25.6179C11.3277 25.9917 11.8824 26.5647 12.1253 27.2937L12.6421 28.8439C13.0051 29.9328 14.0241 30.6673 15.1719 30.6673H16.8279C17.9757 30.6673 18.9947 29.9328 19.3577 28.8439L19.8744 27.2937C20.1174 26.5647 20.672 25.9917 21.3434 25.6179C21.4478 25.5597 21.5512 25.4999 21.6536 25.4385C22.3132 25.0425 23.0876 24.8481 23.8413 25.0023L25.4435 25.3302C26.5681 25.5603 27.7137 25.045 28.2876 24.051L29.1155 22.6169C29.6894 21.6229 29.5629 20.3731 28.8013 19.5143L27.7147 18.2889C27.2055 17.7146 26.9854 16.9488 26.9976 16.1814C26.9995 16.0609 26.9995 15.9403 26.9976 15.8198C26.9854 15.0524 27.2055 14.2866 27.7147 13.7123L28.8013 12.4869C29.5629 11.6281 29.6894 10.3784 29.1155 9.38432L28.2876 7.95023C27.7137 6.95619 26.5681 6.44092 25.4436 6.67103L23.8412 6.99892C23.0875 7.15316 22.3131 6.95874 21.6535 6.56277C21.5512 6.50136 21.4478 6.44157 21.3434 6.38343C20.672 6.00962 20.1174 5.43657 19.8744 4.70759L19.3577 3.15738C18.9947 2.06846 17.9757 1.33398 16.8279 1.33398H15.1719C14.0241 1.33398 13.0051 2.06846 12.6421 3.15738L12.1253 4.70759ZM20 16.0007C20 18.2098 18.2091 20.0007 16 20.0007C13.7908 20.0007 12 18.2098 12 16.0007C12 13.7915 13.7908 12.0007 16 12.0007C18.2091 12.0007 20 13.7915 20 16.0007Z" />
</svg>
	