<svg width="32" height="32" viewBox="0 0 32 32" fill="none" xmlns="http://www.w3.org/2000/svg">
	<path
		d="M12 8.66601C12 7.56144 12.8954 6.66602 14 6.66602H18C19.1046 6.66602 20 7.56145 20 8.66602V24.3327C20 24.885 19.5523 25.3327 19 25.3327H13C12.4477 25.3327 12 24.885 12 24.3327V8.66601Z"
	/>
	<path
		d="M22.6665 17C22.6665 16.4477 23.1142 16 23.6665 16H27.3332C28.4377 16 29.3332 16.8954 29.3332 18V24.3333C29.3332 24.8856 28.8855 25.3333 28.3332 25.3333H23.6665C23.1142 25.3333 22.6665 24.8856 22.6665 24.3333V17Z"
	/>
	<path
		d="M2.6665 15.334C2.6665 14.2294 3.56193 13.334 4.6665 13.334H8.33317C8.88546 13.334 9.33317 13.7817 9.33317 14.334V24.334C9.33317 24.8863 8.88546 25.334 8.33317 25.334H3.6665C3.11422 25.334 2.6665 24.8863 2.6665 24.334V15.334Z"
	/>
</svg>
	