<svg width="32" height="32" viewBox="0 0 32 32" fill="none" xmlns="http://www.w3.org/2000/svg">
	<path fill-rule="evenodd" clip-rule="evenodd"
		d="M16 24C20.4183 24 24 20.4183 24 16C24 11.5817 20.4183 8 16 8C11.5817 8 8 11.5817 8 16C8 20.4183 11.5817 24 16 24Z"
	/>
	<path fill-rule="evenodd" clip-rule="evenodd"
		d="M15.9935 2C16.7298 2 17.3268 2.59695 17.3268 3.33333V4.66667C17.3268 5.40305 16.7298 6 15.9935 6C15.2571 6 14.6601 5.40305 14.6601 4.66667V3.33333C14.6601 2.59695 15.2571 2 15.9935 2Z"
	/>
	<path fill-rule="evenodd" clip-rule="evenodd"
		d="M15.9935 26C16.7298 26 17.3268 26.597 17.3268 27.3333V28.6624C17.3268 29.3987 16.7298 29.9957 15.9935 29.9957C15.2571 29.9957 14.6601 29.3987 14.6601 28.6624V27.3333C14.6601 26.597 15.2571 26 15.9935 26Z"
	/>
	<path fill-rule="evenodd" clip-rule="evenodd"
		d="M1.99561 15.9979C1.99561 15.2615 2.59256 14.6645 3.32894 14.6645H4.66227C5.39865 14.6645 5.99561 15.2615 5.99561 15.9979C5.99561 16.7342 5.39865 17.3312 4.66227 17.3312H3.32894C2.59256 17.3312 1.99561 16.7342 1.99561 15.9979Z"
	/>
	<path fill-rule="evenodd" clip-rule="evenodd"
		d="M25.9956 15.9979C25.9956 15.2615 26.5926 14.6645 27.3289 14.6645H28.658C29.3944 14.6645 29.9913 15.2615 29.9913 15.9979C29.9913 16.7342 29.3944 17.3312 28.658 17.3312H27.3289C26.5926 17.3312 25.9956 16.7342 25.9956 15.9979Z"
	/>
	<path fill-rule="evenodd" clip-rule="evenodd"
		d="M6.09561 25.8958C5.57491 25.3751 5.57491 24.5309 6.09561 24.0102L7.03842 23.0674C7.55912 22.5467 8.40334 22.5467 8.92404 23.0674C9.44474 23.5881 9.44474 24.4323 8.92404 24.953L7.98123 25.8958C7.46053 26.4165 6.61631 26.4165 6.09561 25.8958Z"
	/>
	<path fill-rule="evenodd" clip-rule="evenodd"
		d="M23.0662 8.92526C22.5455 8.40456 22.5455 7.56034 23.0662 7.03964L24.0059 6.09987C24.5266 5.57917 25.3709 5.57917 25.8916 6.09987C26.4123 6.62057 26.4123 7.46479 25.8916 7.98549L24.9518 8.92526C24.4311 9.44596 23.5869 9.44596 23.0662 8.92526Z"
	/>
	<path fill-rule="evenodd" clip-rule="evenodd"
		d="M6.09561 6.09987C6.61631 5.57917 7.46053 5.57917 7.98123 6.09987L8.92404 7.04268C9.44474 7.56338 9.44474 8.4076 8.92404 8.9283C8.40334 9.449 7.55912 9.449 7.03842 8.9283L6.09561 7.98549C5.57491 7.46479 5.57491 6.62057 6.09561 6.09987Z"
	/>
	<path fill-rule="evenodd" clip-rule="evenodd"
		d="M23.0662 23.0704C23.5869 22.5497 24.4311 22.5497 24.9518 23.0704L25.8916 24.0102C26.4123 24.5309 26.4123 25.3751 25.8916 25.8958C25.3709 26.4165 24.5266 26.4165 24.0059 25.8958L23.0662 24.9561C22.5455 24.4354 22.5455 23.5911 23.0662 23.0704Z"
	/>
</svg>
	